#!OML:ASF F:\VICON\USERDATA\INSTALL\rory3\rory3.ASF
:FULLY-SPECIFIED
:DEGREES
146
root -10.2939 18.2148 5.01281 181.236 -22.7581 178.438
lowerback 11.5913 -2.42003 -1.3177
upperback 0.673314 -3.3646 2.62961
thorax -5.55531 -1.64606 4.05302
lowerneck 5.66263 -14.9777 -14.3528
upperneck 28.4351 -39.5303 17.2015
head 15.9811 -19.7175 2.35912
rclavicle -2.29596e-014 -2.78299e-014
rhumerus -28.1222 -7.73448 -80.3544
rradius 37.3068
rwrist 1.01519
rhand -17.3197 6.06442
rfingers 7.12502
rthumb 8.92684 -23.7267
lclavicle -2.29596e-014 -2.78299e-014
lhumerus -33.63 11.5487 72.9199
lradius 19.7443
lwrist -12.2111
lhand -17.8474 27.7687
lfingers 7.12502
lthumb 8.41765 57.5809
rfemur -2.08816 2.25468 26.2014
rtibia 30.1243
rfoot -8.03213 9.84557
rtoes 3.58592
lfemur -17.3707 -5.91083 -17.6645
ltibia 30.5307
lfoot -10.0841 0.406417
ltoes -6.11569
147
root -10.2423 18.2149 5.10632 181.091 -22.9033 179.038
lowerback 11.5989 -2.3714 -0.738362
upperback 0.646233 -3.22288 2.81128
thorax -5.62002 -1.59119 3.89818
lowerneck 5.53836 -14.9854 -14.2714
upperneck 28.7681 -39.4401 16.8604
head 16.0221 -19.6613 2.24278
rclavicle -3.67752e-015 7.95139e-016
rhumerus -28.03 -7.39081 -80.3997
rradius 37.0926
rwrist 0.889634
rhand -17.4147 6.29787
rfingers 7.12502
rthumb 8.8352 -23.4972
lclavicle -3.67752e-015 7.95139e-016
lhumerus -33.5259 11.1488 73.2826
lradius 20.0586
lwrist -12.2071
lhand -17.6829 27.6993
lfingers 7.12502
lthumb 8.57637 57.5052
rfemur -2.68521 2.33199 26.8985
rtibia 30.2935
rfoot -7.78688 9.62264
rtoes 3.48143
lfemur -17.3478 -5.77641 -17.0009
ltibia 31.8156
lfoot -10.2228 1.9309
ltoes -5.70189
148
root -10.1963 18.2174 5.18864 180.99 -23.0356 179.377
lowerback 11.577 -2.28013 -0.388233
upperback 0.601895 -3.05314 2.91665
thorax -5.67871 -1.5157 3.78618
lowerneck 5.5736 -14.9171 -14.2953
upperneck 28.9398 -39.4029 16.8343
head 16.0946 -19.65 2.24496
rclavicle -3.18055e-015 1.19271e-014
rhumerus -28.1428 -7.37994 -80.3441
rradius 36.9848
rwrist 1.03767
rhand -17.1867 6.22625
rfingers 7.12502
rthumb 9.05523 -23.5594
lclavicle -3.18055e-015 1.19271e-014
lhumerus -33.4427 10.4732 73.7955
lradius 20.3828
lwrist -11.9479
lhand -17.5443 27.8728
lfingers 7.12502
lthumb 8.7101 57.6731
rfemur -3.18158 2.24152 27.2832
rtibia 30.4756
rfoot -7.51845 9.60713
rtoes 3.66237
lfemur -17.2373 -5.51482 -16.637
ltibia 33.2189
lfoot -10.4166 3.0065
ltoes -5.04703
149
root -10.1512 18.224 5.25974 180.902 -23.2983 179.45
lowerback 11.5157 -2.2321 -0.331721
upperback 0.578609 -2.97944 2.99822
thorax -5.67233 -1.48075 3.82642
lowerneck 5.58094 -14.8734 -14.3114
upperneck 29.1676 -39.2413 16.6046
head 16.1015 -19.5902 2.21199
rclavicle 1.04362e-014 1.66979e-014
rhumerus -28.364 -7.40471 -80.2358
rradius 36.9512
rwrist 1.25145
rhand -17.0119 6.563
rfingers 7.12502
rthumb 9.22382 -23.2153
lclavicle 1.04362e-014 1.66979e-014
lhumerus -33.3923 10.073 74.266
lradius 20.67
lwrist -11.8639
lhand -17.1229 28.1716
lfingers 7.12502
lthumb 9.11678 57.9545
rfemur -3.55175 2.05719 27.4101
rtibia 30.6816
rfoot -7.2675 9.55835
rtoes 4.82238
lfemur -16.9679 -5.37271 -16.5415
ltibia 34.6295
lfoot -10.788 4.04764
ltoes -5.35927
150
root -10.1068 18.2288 5.32991 180.802 -23.5698 179.576
lowerback 11.4313 -2.19786 -0.19826
upperback 0.514745 -2.91238 3.06343
thorax -5.70012 -1.44942 3.80736
lowerneck 5.6771 -14.8518 -14.2404
upperneck 29.4213 -39.0081 16.2016
head 16.012 -19.515 2.15141
rclavicle -2.01766e-014 -7.95139e-016
rhumerus -28.7054 -7.34545 -80.1804
rradius 36.8741
rwrist 1.3295
rhand -17.1556 7.18437
rfingers 7.12502
rthumb 9.08515 -22.6
lclavicle -2.01766e-014 -7.95139e-016
lhumerus -33.4863 9.63886 74.6438
lradius 21.0435
lwrist -11.8041
lhand -17.0427 28.1837
lfingers 7.12502
lthumb 9.19418 57.9633
rfemur -3.94535 1.96139 27.6197
rtibia 30.9302
rfoot -7.14256 9.32573
rtoes 5.2097
lfemur -16.6336 -5.22231 -16.3891
ltibia 35.9653
lfoot -11.0332 4.82354
ltoes -5.86293
151
root -10.0612 18.2313 5.39913 180.689 -23.865 179.777
lowerback 11.3549 -2.20041 0.00207868
upperback 0.498432 -2.88986 3.16081
thorax -5.68083 -1.44462 3.79022
lowerneck 5.64583 -14.8061 -14.3338
upperneck 29.546 -38.8724 16.1259
head 16.0484 -19.4619 2.16059
rclavicle -2.28602e-015 -1.74931e-014
rhumerus -28.8733 -7.21411 -80.192
rradius 36.7934
rwrist 1.26891
rhand -17.6544 7.47035
rfingers 7.12502
rthumb 8.6039 -22.3343
lclavicle -2.28602e-015 -1.74931e-014
lhumerus -33.4689 9.64404 74.9072
lradius 21.3098
lwrist -11.9981
lhand -17.3807 28.1435
lfingers 7.12502
lthumb 8.86797 57.9372
rfemur -4.38355 1.87764 27.91
rtibia 31.1821
rfoot -6.90239 9.07392
rtoes 5.11798
lfemur -16.2738 -4.93401 -16.1691
ltibia 37.2657
lfoot -10.8451 4.70169
ltoes -4.77288
152
root -10.0148 18.2364 5.46954 180.588 -24.2726 179.851
lowerback 11.2876 -2.22664 0.0903218
upperback 0.536925 -2.91688 3.24054
thorax -5.60113 -1.46324 3.82359
lowerneck 5.51322 -14.8254 -14.402
upperneck 29.6175 -38.7401 16.0449
head 16.0687 -19.3889 2.15314
rclavicle 4.2043e-014 7.15625e-015
rhumerus -28.8727 -7.23194 -80.1358
rradius 36.632
rwrist 1.22508
rhand -17.8976 7.50433
rfingers 7.12502
rthumb 8.36919 -22.3099
lclavicle 4.2043e-014 7.15625e-015
lhumerus -33.273 9.59179 75.2699
lradius 21.4994
lwrist -12.0219
lhand -17.617 27.9294
lfingers 7.12502
lthumb 8.63998 57.7326
rfemur -4.78722 1.60971 28.0471
rtibia 31.42
rfoot -6.50146 8.95533
rtoes 5.89675
lfemur -15.8672 -4.71295 -16.0854
ltibia 38.5724
lfoot -10.6628 4.47938
ltoes -3.33269
153
root -9.96801 18.2388 5.53784 180.43 -24.7058 179.956
lowerback 11.2495 -2.26669 0.204255
upperback 0.530012 -2.95604 3.28812
thorax -5.58782 -1.48609 3.81383
lowerneck 5.62066 -14.7934 -14.3981
upperneck 29.5608 -38.5333 16.0368
head 15.9695 -19.3155 2.22561
rclavicle -2.38542e-015 1.74931e-014
rhumerus -29.0868 -7.59631 -79.9849
rradius 36.579
rwrist 1.95032
rhand -17.4757 7.12871
rfingers 7.12502
rthumb 8.77635 -22.6688
lclavicle -2.38542e-015 1.74931e-014
lhumerus -33.2064 9.39083 75.5654
lradius 21.7883
lwrist -11.8846
lhand -17.611 27.8305
lfingers 7.12502
lthumb 8.64572 57.6334
rfemur -5.08579 1.36842 28.2415
rtibia 31.6497
rfoot -6.30464 8.67429
rtoes 5.90019
lfemur -15.39 -4.44957 -15.9455
ltibia 39.8721
lfoot -10.7308 4.28237
ltoes -3.10029
154
root -9.91965 18.2317 5.60287 180.303 -25.1629 180.06
lowerback 11.1538 -2.31345 0.25778
upperback 0.514312 -3.01149 3.35852
thorax -5.54646 -1.51547 3.86168
lowerneck 5.5042 -14.8141 -14.3363
upperneck 29.7796 -38.3873 15.7344
head 15.9593 -19.2449 2.13896
rclavicle -1.03368e-014 1.74931e-014
rhumerus -29.3833 -8.04336 -79.7692
rradius 36.5865
rwrist 2.8271
rhand -16.6686 6.85088
rfingers 7.12502
rthumb 9.55513 -22.9125
lclavicle -1.03368e-014 1.74931e-014
lhumerus -33.1771 9.05006 75.9505
lradius 22.1779
lwrist -11.2893
lhand -17.5369 27.7255
lfingers 7.12502
lthumb 8.71727 57.5255
rfemur -5.34393 1.18774 28.4769
rtibia 31.8476
rfoot -6.37844 8.21767
rtoes 4.63127
lfemur -14.948 -4.17758 -15.7674
ltibia 41.1428
lfoot -10.8233 3.93475
ltoes -4.23913
155
root -9.87214 18.2242 5.66784 180.188 -25.6306 180.086
lowerback 11.0786 -2.35856 0.202726
upperback 0.531496 -3.0799 3.46767
thorax -5.4732 -1.55008 4.01341
lowerneck 5.12155 -14.9131 -14.3384
upperneck 30.1652 -38.2674 15.2222
head 16.0372 -19.1585 1.93588
rclavicle -6.65929e-015 1.66979e-014
rhumerus -29.5944 -8.19102 -79.6269
rradius 36.4484
rwrist 2.65357
rhand -16.6896 7.23708
rfingers 7.12502
rthumb 9.53488 -22.5272
lclavicle -6.65929e-015 1.66979e-014
lhumerus -33.1272 8.82658 76.4323
lradius 22.619
lwrist -10.737
lhand -17.6115 27.8537
lfingers 7.12502
lthumb 8.64525 57.6567
rfemur -5.58476 0.958793 28.6271
rtibia 32.011
rfoot -6.44237 7.77622
rtoes 3.85011
lfemur -14.4487 -3.90156 -15.6883
ltibia 42.359
lfoot -10.7953 3.72718
ltoes -5.328
156
root -9.82627 18.2291 5.7309 180.099 -26.1613 180.061
lowerback 11.0004 -2.42688 0.202597
upperback 0.526284 -3.17123 3.50521
thorax -5.42693 -1.59573 4.06234
lowerneck 5.01295 -14.9691 -14.3352
upperneck 30.2421 -38.1268 15.0247
head 16.0021 -19.0883 1.89156
rclavicle 7.63333e-014 1.11319e-014
rhumerus -29.8643 -8.31817 -79.5993
rradius 36.2912
rwrist 2.00223
rhand -17.2277 7.59485
rfingers 7.12502
rthumb 9.01565 -22.1925
lclavicle 7.63333e-014 1.11319e-014
lhumerus -33.1275 8.42815 76.8883
lradius 23.1549
lwrist -10.0475
lhand -17.6363 28.285
lfingers 7.12502
lthumb 8.62131 58.089
rfemur -5.85332 0.654075 28.6853
rtibia 32.1115
rfoot -6.34301 7.4133
rtoes 4.18924
lfemur -13.8929 -3.62524 -15.6755
ltibia 43.5069
lfoot -10.5938 3.50978
ltoes -5.48091
157
root -9.77852 18.2351 5.79358 180.052 -26.8155 180.008
lowerback 10.9018 -2.53265 0.160687
upperback 0.489873 -3.31519 3.5287
thorax -5.39698 -1.6648 4.1276
lowerneck 5.14771 -14.9919 -14.3782
upperneck 30.0943 -37.9898 15.0528
head 15.8896 -19.0452 1.96703
rclavicle -1.05058e-013 -3.97569e-015
rhumerus -30.1902 -8.6134 -79.4949
rradius 36.2133
rwrist 1.85944
rhand -17.3357 7.58192
rfingers 7.12502
rthumb 8.91141 -22.2099
lclavicle -1.05058e-013 -3.97569e-015
lhumerus -33.0726 8.16739 77.2454
lradius 23.5389
lwrist -9.5086
lhand -17.6897 28.4383
lfingers 7.12502
lthumb 8.5698 58.2444
rfemur -6.14226 0.369653 28.7269
rtibia 32.1864
rfoot -6.31244 6.9973
rtoes 4.37662
lfemur -13.3428 -3.2818 -15.6717
ltibia 44.55
lfoot -10.2715 3.25676
ltoes -5.83167
158
root -9.72916 18.239 5.85278 179.948 -27.4676 180.039
lowerback 10.8379 -2.65872 0.121127
upperback 0.42001 -3.48352 3.63403
thorax -5.41478 -1.74555 4.28536
lowerneck 5.26709 -14.9179 -14.6347
upperneck 30.0674 -37.8422 15.1176
head 15.899 -19.016 2.06216
rclavicle 2.19657e-014 -3.73715e-014
rhumerus -30.5364 -8.74496 -79.2941
rradius 36.0699
rwrist 1.94829
rhand -17.2342 7.31821
rfingers 7.12502
rthumb 9.00939 -22.4694
lclavicle 2.19657e-014 -3.73715e-014
lhumerus -33.0624 7.8562 77.6905
lradius 23.7966
lwrist -8.90076
lhand -18.1067 28.0306
lfingers 7.12502
lthumb 8.16734 57.8527
rfemur -6.31469 0.190633 28.8641
rtibia 32.181
rfoot -6.32081 6.56427
rtoes 4.58034
lfemur -12.7571 -2.92092 -15.5525
ltibia 45.524
lfoot -10.0269 2.92767
ltoes -5.21054
